<svg width="36" height="21" viewBox="0 0 36 21" fill="none" xmlns="http://www.w3.org/2000/svg">
  <g clip-path="url(#clip0_6_670)">
    <path d="M17.6141 21.0001C12.5165 21.0001 7.75252 18.5206 4.86645 14.3703C4.57735 13.9562 4.57735 13.4082 4.86645 12.9942C7.75252 8.84385 12.519 6.36438 17.6141 6.36438C22.7092 6.36438 27.4756 8.84385 30.3617 12.9942C30.6508 13.4082 30.6508 13.9562 30.3617 14.3703C27.4756 18.5206 22.7092 21.0001 17.6141 21.0001ZM7.41894 13.681C9.87259 16.7523 13.6235 18.562 17.6165 18.562C21.6096 18.562 25.358 16.7523 27.8117 13.681C25.358 10.6097 21.6071 8.80001 17.6165 8.80001C13.626 8.80001 9.87506 10.6097 7.41894 13.681Z" fill="#A7A7A7" />
    <path d="M17.6141 19.5679C13.5024 19.5679 10.1592 16.2701 10.1592 12.2196C10.1592 10.7972 10.5719 9.41622 11.3551 8.22763C11.7258 7.66257 12.4918 7.50182 13.0626 7.86716C13.6358 8.23251 13.7989 8.98755 13.4283 9.55262C12.9069 10.3466 12.6302 11.2697 12.6302 12.2196C12.6302 14.9281 14.8664 17.1323 17.6141 17.1323C20.3617 17.1323 22.598 14.9281 22.598 12.2196C22.598 11.1333 22.2471 10.1055 21.5824 9.24573C21.1697 8.70989 21.2735 7.94754 21.8171 7.53835C22.3607 7.1316 23.1342 7.2339 23.5493 7.76974C24.5451 9.05818 25.0714 10.5975 25.0714 12.2196C25.0714 16.2725 21.7257 19.5679 17.6165 19.5679H17.6141Z" fill="#A7A7A7" />
    <path d="M19.3437 13.1136C18.1626 13.1136 17.2014 12.1661 17.2014 11.0019C17.2014 10.3857 17.4707 9.83523 17.8982 9.44796C17.8043 9.43822 17.7104 9.43335 17.6141 9.43335C16.0549 9.43335 14.7873 10.6828 14.7873 12.2197C14.7873 13.7566 16.0549 15.0061 17.6141 15.0061C18.9484 15.0061 20.0677 14.0878 20.3617 12.8603C20.0578 13.0235 19.7119 13.1136 19.3437 13.1136Z" fill="#A7A7A7" />
    <path d="M17.6141 4.92009C16.9321 4.92009 16.3786 4.37451 16.3786 3.70228V1.21794C16.3786 0.545703 16.9321 0.00012207 17.6141 0.00012207C18.2961 0.00012207 18.8495 0.545703 18.8495 1.21794V3.70228C18.8495 4.37451 18.2961 4.92009 17.6141 4.92009Z" fill="#A7A7A7" />
    <path d="M3.69028 11.7155C3.47778 11.7155 3.26528 11.6619 3.07007 11.5498L0.680667 10.1761C0.0901104 9.83759 -0.107565 9.09228 0.235896 8.51017C0.579358 7.93049 1.33547 7.7332 1.92602 8.07175L4.31543 9.44545C4.90598 9.784 5.10366 10.5293 4.7602 11.1114C4.5304 11.4987 4.11775 11.7155 3.69275 11.7155H3.69028Z" fill="#A7A7A7" />
    <path d="M31.5378 11.7155C31.1128 11.7155 30.7002 11.4987 30.4704 11.1114C30.1269 10.5293 30.3246 9.784 30.9152 9.44545L33.3046 8.07175C33.8951 7.7332 34.6512 7.93049 34.9947 8.51017C35.3382 9.09228 35.1405 9.83759 34.5499 10.1761L32.1605 11.5498C31.9653 11.6619 31.7503 11.7155 31.5403 11.7155H31.5378Z" fill="#A7A7A7" />
    <path d="M9.63291 6.77356C9.21532 6.77356 8.80762 6.56409 8.57535 6.18657L7.14467 3.85324C6.79132 3.27843 6.97912 2.52826 7.56226 2.17996C8.1454 1.83167 8.90645 2.01677 9.2598 2.59158L10.6905 4.92492C11.0438 5.49972 10.856 6.2499 10.2729 6.59819C10.0727 6.71754 9.85283 6.77356 9.63538 6.77356H9.63291Z" fill="#A7A7A7" />
    <path d="M25.5977 6.77356C25.3803 6.77356 25.1604 6.71754 24.9602 6.59819C24.3771 6.2499 24.1893 5.50216 24.5426 4.92492L25.9733 2.59158C26.3266 2.01677 27.0852 1.83167 27.6708 2.17996C28.254 2.52826 28.4418 3.27599 28.0884 3.85324L26.6577 6.18657C26.4255 6.56409 26.0178 6.77356 25.6002 6.77356H25.5977Z" fill="#A7A7A7" />
  </g>
  <defs>
    <clipPath id="clip0_6_670">
      <rect width="35.0949" height="21" fill="white" transform="translate(0.0678711 0.00012207)" />
    </clipPath>
  </defs>
</svg>